HIERARCHY
ROOT Hips
{
	OFFSET -0.001795 -0.223333 0.028219
	CHANNELS 6 Xposition Yposition Zposition Zrotation Yrotation Xrotation 
	JOINT LeftUpLeg
	{
		OFFSET 0.069520 -0.091406 -0.006815
		CHANNELS 3 Zrotation Yrotation Xrotation
		JOINT LeftLeg
		{
			OFFSET 0.034277 -0.375199 -0.004496
			CHANNELS 3 Zrotation Yrotation Xrotation
			JOINT LeftFoot
			{
				OFFSET -0.013596 -0.397961 -0.043693
				CHANNELS 3 Zrotation Yrotation Xrotation
				JOINT LeftToe
				{
					OFFSET 0.026358 -0.055791 0.119288
					CHANNELS 3 Zrotation Yrotation Xrotation
					End Site
					{
						OFFSET 0.000000 0.000000 0.000000
					}
				}
			}
		}
	}
	JOINT RightUpLeg
	{
		OFFSET -0.067670 -0.090522 -0.004320
		CHANNELS 3 Zrotation Yrotation Xrotation
		JOINT RightLeg
		{
			OFFSET -0.038290 -0.382569 -0.008850
			CHANNELS 3 Zrotation Yrotation Xrotation
			JOINT RightFoot
			{
				OFFSET 0.015774 -0.398415 -0.042312
				CHANNELS 3 Zrotation Yrotation Xrotation
				JOINT RightToe
				{
					OFFSET -0.025372 -0.048144 0.123348
					CHANNELS 3 Zrotation Yrotation Xrotation
					End Site
					{
						OFFSET 0.000000 0.000000 0.000000
					}
				}
			}
		}
	}
	JOINT Spine
	{
		OFFSET -0.002533 0.108963 -0.026696
		CHANNELS 3 Zrotation Yrotation Xrotation
		JOINT Spine1
		{
			OFFSET 0.005487 0.135180 0.001092
			CHANNELS 3 Zrotation Yrotation Xrotation
			JOINT Spine2
			{
				OFFSET 0.001457 0.052922 0.025425
				CHANNELS 3 Zrotation Yrotation Xrotation
				JOINT Neck
				{
					OFFSET -0.002778 0.213870 -0.042857
					CHANNELS 3 Zrotation Yrotation Xrotation
					JOINT Head
					{
						OFFSET 0.005152 0.064970 0.051349
						CHANNELS 3 Zrotation Yrotation Xrotation
						End Site
						{
							OFFSET 0.000000 0.000000 0.000000
						}
					}
				}
				JOINT LeftShoulder
				{
					OFFSET 0.078845 0.121749 -0.034090
					CHANNELS 3 Zrotation Yrotation Xrotation
					JOINT LeftArm
					{
						OFFSET 0.090977 0.030469 -0.008868
						CHANNELS 3 Zrotation Yrotation Xrotation
						JOINT LeftForeArm
						{
							OFFSET 0.259612 -0.012772 -0.027456
							CHANNELS 3 Zrotation Yrotation Xrotation
							JOINT LeftHand
							{
								OFFSET 0.249234 0.008986 -0.001171
								CHANNELS 3 Zrotation Yrotation Xrotation
								End Site
								{
									OFFSET 0.000000 0.000000 0.000000
								}
							}
						}
					}
				}
				JOINT RightShoulder
				{
					OFFSET -0.081759 0.118833 -0.038615
					CHANNELS 3 Zrotation Yrotation Xrotation
					JOINT RightArm
					{
						OFFSET -0.096012 0.032551 -0.009143
						CHANNELS 3 Zrotation Yrotation Xrotation
						JOINT RightForeArm
						{
							OFFSET -0.253742 -0.013329 -0.021401
							CHANNELS 3 Zrotation Yrotation Xrotation
							JOINT RightHand
							{
								OFFSET -0.255298 0.007772 -0.005559
								CHANNELS 3 Zrotation Yrotation Xrotation
								End Site
								{
									OFFSET 0.000000 0.000000 0.000000
								}
							}
						}
					}
				}
			}
		}
	}
}
MOTION
Frames: 17
Frame Time: 0.050000
-0.001716 0.860010 1.022886 2.414838 6.576043 -8.079724 3.436048 -1.318929 -18.079444 -4.422266 -0.233261 32.909494 6.708317 12.137017 -6.280006 0.000000 0.000000 0.000000 -6.808067 0.558231 -22.545408 5.365877 -4.294366 71.959499 -5.542981 -15.635791 18.301847 0.000000 0.000000 0.000000 -8.781181 0.309324 19.094456 9.886362 -2.000911 -22.779488 1.553771 -2.393065 25.923563 -2.740586 3.259660 -22.157001 0.000000 0.000000 0.000000 -15.184674 -16.656348 7.182438 -25.407437 -52.057716 5.355873 24.777811 -82.008925 -17.474191 0.000000 0.000000 0.000000 13.781920 21.410895 9.685592 42.029751 23.809393 1.877186 2.990260 63.313599 5.194854 0.000000 0.000000 0.000000 
0.004953 0.859224 1.041566 3.191522 6.725734 -7.267847 2.566085 -1.325178 -16.647593 -4.947485 0.020182 31.550500 7.153035 12.393110 -9.017994 0.000000 0.000000 0.000000 -9.017655 0.031676 -28.816755 5.773838 -5.078125 78.415910 -5.840135 -15.115679 6.310551 0.000000 0.000000 0.000000 -8.516215 0.303491 19.895095 11.298950 -2.189683 -24.414772 -0.705712 -4.435034 26.633262 -3.090519 3.169050 -23.438068 0.000000 0.000000 0.000000 -15.320490 -16.181648 7.387314 -24.050940 -53.631227 5.182454 26.778964 -80.849975 -18.359521 0.000000 0.000000 0.000000 12.041717 19.792501 8.334054 41.880569 22.772740 1.456910 2.098940 64.754925 4.445251 0.000000 0.000000 0.000000 
0.005300 0.861856 1.062371 2.682535 5.399995 -6.833630 3.748943 -0.832278 -12.630704 -5.397304 0.441325 26.634377 7.671522 12.898417 -12.279620 0.000000 0.000000 0.000000 -9.626763 -0.032185 -32.415987 6.477110 -4.430018 71.779712 -7.696249 -18.565924 -4.373867 0.000000 0.000000 0.000000 -7.743947 0.250722 19.873580 11.935851 -2.169018 -25.922947 -3.004312 -5.081500 28.015976 -3.024404 2.920139 -24.378087 0.000000 0.000000 0.000000 -15.125008 -17.174446 8.170902 -24.619328 -53.903162 5.408805 35.392094 -78.070868 -24.086335 0.000000 0.000000 0.000000 13.153202 19.593221 8.181956 38.466270 21.011959 0.553014 -2.247489 64.648945 1.285316 0.000000 0.000000 0.000000 
0.000221 0.866974 1.085202 1.597942 3.293689 -6.419136 6.057710 -0.396167 -9.078582 -6.154932 0.882591 22.726993 7.947226 13.855752 -12.970491 0.000000 0.000000 0.000000 -9.685649 0.215404 -32.527818 6.573566 -2.722623 56.355940 -8.424304 -20.333832 2.082730 0.000000 0.000000 0.000000 -6.027620 0.066996 18.746227 12.201779 -2.306347 -25.383095 -4.405977 -5.251011 27.065283 -3.559381 3.042868 -22.533998 0.000000 0.000000 0.000000 -16.583515 -17.479855 8.833400 -22.696328 -54.646606 4.822932 36.535205 -73.766448 -23.047834 0.000000 0.000000 0.000000 13.606600 19.256197 7.816564 34.536891 19.096931 -0.035917 -11.281152 62.147694 -4.644914 0.000000 0.000000 0.000000 
-0.010363 0.872580 1.110244 1.188179 1.618703 -5.360704 7.591300 -0.184697 -6.123511 -6.470288 1.050314 18.841795 8.014754 14.621139 -12.063804 0.000000 0.000000 0.000000 -9.413001 0.502394 -31.292616 6.353023 -1.787647 46.935700 -8.998338 -21.336062 10.000492 0.000000 0.000000 0.000000 -5.485141 0.052168 17.368255 10.959795 -1.873952 -26.289418 -4.656638 -7.576237 27.372065 -2.769626 1.991313 -22.971887 0.000000 0.000000 0.000000 -17.617228 -15.869514 8.991389 -20.420308 -55.117743 3.936344 34.528163 -70.197913 -19.588652 0.000000 0.000000 0.000000 12.308185 17.982105 6.534528 32.348463 17.699995 -0.342007 -15.094842 59.893046 -7.444234 0.000000 0.000000 0.000000 
-0.027431 0.877931 1.136771 0.844696 0.282334 -4.589208 8.869331 -0.079293 -4.348870 -5.841131 0.937091 17.725658 7.968417 15.226439 -9.494885 0.000000 0.000000 0.000000 -8.186458 0.898377 -28.239142 6.054042 -1.239941 41.138047 -8.707841 -20.895781 10.399986 0.000000 0.000000 0.000000 -6.036954 0.147276 14.675020 11.843735 -2.202376 -25.316797 -5.305270 -8.136639 26.391636 -3.524166 2.276020 -21.697079 0.000000 0.000000 0.000000 -17.813203 -14.339867 8.503461 -17.607271 -53.710974 2.613376 35.145646 -67.112352 -18.950055 0.000000 0.000000 0.000000 11.600246 15.075481 4.976807 30.824452 17.545448 -0.322175 -19.906854 58.754289 -10.385941 0.000000 0.000000 0.000000 
-0.049398 0.881932 1.161600 -0.299900 -1.104877 -4.308896 11.370946 0.051653 -5.001367 -5.276492 0.916271 21.698225 7.886295 15.755791 -5.107637 0.000000 0.000000 0.000000 -5.563202 1.407972 -24.392772 5.958083 -0.930987 36.075323 -8.339929 -20.318502 7.417831 0.000000 0.000000 0.000000 -6.308026 0.146457 11.188572 11.310888 -2.034316 -25.587734 -5.181442 -9.406449 28.299259 -4.371343 2.483910 -20.151927 0.000000 0.000000 0.000000 -15.781949 -12.910558 7.897213 -16.223166 -53.051274 2.041140 31.252018 -58.472157 -13.524632 0.000000 0.000000 0.000000 8.635463 13.274620 3.980604 32.255079 18.157890 -0.311594 -22.427337 57.373082 -12.014767 0.000000 0.000000 0.000000 
-0.073484 0.884474 1.179943 -2.408578 -2.494579 -4.295597 16.451396 0.619141 -9.745540 -7.136114 2.094088 33.755371 6.991846 14.535638 0.722563 0.000000 0.000000 0.000000 -2.293604 1.863687 -21.441532 7.489385 -1.386154 33.099656 -8.316922 -20.292687 4.505209 0.000000 0.000000 0.000000 -5.861153 0.089575 9.706000 10.883023 -1.900128 -25.906509 -4.321729 -9.715288 28.779030 -6.700249 3.995261 -18.722333 0.000000 0.000000 0.000000 -15.868646 -12.632140 8.019557 -11.971284 -50.578959 0.202348 28.124206 -50.742205 -10.175787 0.000000 0.000000 0.000000 7.260045 12.988510 3.806333 32.008162 18.267699 -0.351455 -23.822706 57.001234 -13.036715 0.000000 0.000000 0.000000 
-0.095120 0.888118 1.189668 -3.435867 -2.104611 -3.830474 19.456178 1.552675 -18.136121 -8.435810 3.435141 48.202262 6.415642 14.496712 9.377794 0.000000 0.000000 0.000000 -0.484727 2.016706 -20.040878 8.784745 -1.927488 31.013265 -8.594270 -20.865441 4.016563 0.000000 0.000000 0.000000 -6.444330 0.142251 10.018444 11.165635 -1.777773 -27.319124 -2.859010 -9.241915 28.820279 -7.675790 4.815484 -18.692724 0.000000 0.000000 0.000000 -17.978663 -13.989685 9.058866 -7.224960 -50.067509 -1.647710 23.374883 -41.907713 -6.770071 0.000000 0.000000 0.000000 7.281615 13.324061 4.038426 30.885361 17.527136 -0.554500 -28.111684 57.163496 -15.338935 0.000000 0.000000 0.000000 
-0.109705 0.890498 1.191714 -3.705273 -2.899191 -3.767464 19.594361 2.146864 -23.500109 -10.544941 5.812522 57.525217 8.350973 17.703324 11.340279 0.000000 0.000000 0.000000 1.196860 2.167691 -18.889449 8.295087 -1.598658 29.262755 -8.376939 -20.410099 3.071752 0.000000 0.000000 0.000000 -6.110456 0.150401 11.583680 11.019074 -1.676748 -27.835320 -2.428317 -5.999877 28.187076 -6.124783 4.141435 -19.522990 0.000000 0.000000 0.000000 -16.370678 -15.913015 9.107509 -6.402636 -50.535305 -1.866008 22.313187 -35.987472 -5.563976 0.000000 0.000000 0.000000 7.383535 13.975859 4.612450 30.620425 18.187342 -0.464178 -34.283945 56.161704 -17.679603 0.000000 0.000000 0.000000 
-0.117841 0.896961 1.188992 -3.325201 -2.370786 -3.713122 17.709381 1.903700 -26.544012 -14.128442 8.399754 58.880725 10.925431 21.740906 8.007492 0.000000 0.000000 0.000000 1.427415 2.147468 -18.559620 7.997472 -1.524630 28.178493 -8.359675 -20.400378 5.000962 0.000000 0.000000 0.000000 -6.295721 0.213823 14.172944 9.806757 -1.324108 -28.661475 -1.201058 -5.615292 27.655907 -6.299168 4.282013 -21.662350 0.000000 0.000000 0.000000 -15.909986 -17.097247 9.444111 -6.162757 -51.077157 -1.903184 23.446096 -34.023837 -5.622173 0.000000 0.000000 0.000000 7.049132 15.327636 5.216876 27.349742 20.136060 -0.163171 -36.604094 53.392663 -17.816712 0.000000 0.000000 0.000000 
-0.121001 0.905352 1.185112 -2.852407 -3.304119 -3.941075 15.520571 1.502743 -26.740257 -16.077311 9.474865 54.703701 10.511946 20.986129 10.026124 0.000000 0.000000 0.000000 1.899546 2.159547 -17.962159 6.725867 -0.953320 27.043794 -7.659076 -19.118576 7.208336 0.000000 0.000000 0.000000 -6.453773 0.281318 15.314616 9.284090 -1.280646 -28.160836 -0.773778 -3.271648 26.848478 -5.907654 4.258854 -24.090112 0.000000 0.000000 0.000000 -16.557088 -17.305470 9.284790 -8.763843 -51.466542 -1.005311 22.927638 -34.499954 -5.566119 0.000000 0.000000 0.000000 6.636894 17.241299 6.118254 25.004749 21.813227 0.033196 -37.577118 48.754933 -16.168639 0.000000 0.000000 0.000000 
-0.121513 0.912755 1.184435 -2.765945 -2.955545 -3.828661 13.881616 1.010456 -25.740816 -15.793161 8.450511 50.239438 11.470639 22.183877 16.553928 0.000000 0.000000 0.000000 1.606868 1.893744 -16.236969 6.915783 -1.026374 23.676135 -7.375418 -18.631759 8.506685 0.000000 0.000000 0.000000 -6.091739 0.223997 15.144324 8.015350 -1.065489 -27.653227 -0.162238 -2.257079 27.018873 -4.799552 3.769209 -23.939016 0.000000 0.000000 0.000000 -17.264534 -18.304208 9.640802 -12.032086 -50.556875 0.085170 23.302253 -38.642869 -6.426029 0.000000 0.000000 0.000000 6.197960 17.615895 6.361255 22.161857 23.430208 0.044209 -36.252237 45.246150 -14.100509 0.000000 0.000000 0.000000 
-0.120221 0.917587 1.187621 -3.481923 -2.444645 -3.139568 12.882543 0.601407 -22.402118 -14.198849 6.756230 46.143366 13.348819 24.792717 16.168972 0.000000 0.000000 0.000000 1.992341 1.772921 -14.956093 7.242090 -1.128040 20.488655 -7.297687 -18.520468 9.459988 0.000000 0.000000 0.000000 -5.232752 0.083028 13.273307 7.382815 -1.023690 -26.603513 0.023521 -1.891069 26.480953 -4.955802 3.972538 -24.285982 0.000000 0.000000 0.000000 -18.174262 -17.508185 9.204692 -18.614536 -49.318222 2.223468 21.189878 -43.784264 -6.355456 0.000000 0.000000 0.000000 6.012637 17.658720 6.443829 21.347905 24.537251 0.123974 -32.811043 43.674087 -11.978424 0.000000 0.000000 0.000000 
-0.116280 0.919069 1.191887 -3.820094 -2.502094 -2.918580 12.937782 0.471132 -17.805291 -13.665922 5.794427 40.719907 13.211847 25.057963 11.375245 0.000000 0.000000 0.000000 1.891042 1.654613 -14.093227 7.548543 -1.185830 19.048396 -7.134294 -18.227111 9.539955 0.000000 0.000000 0.000000 -4.961178 0.043266 11.831827 6.907727 -0.903671 -26.722700 0.483105 -2.056824 26.217342 -5.172351 4.079293 -23.492682 0.000000 0.000000 0.000000 -18.796335 -15.721243 8.393904 -24.873543 -47.214283 3.928256 14.506451 -49.976350 -4.037995 0.000000 0.000000 0.000000 6.022758 17.158965 6.233307 21.652266 25.709349 0.300303 -30.596997 44.259879 -11.241943 0.000000 0.000000 0.000000 
-0.107704 0.920275 1.194013 -3.219501 -1.982329 -3.617636 11.815151 0.194363 -13.061836 -11.572792 4.014577 34.274248 9.659481 19.726811 8.231292 0.000000 0.000000 0.000000 0.263626 1.401567 -13.406891 8.160161 -1.394701 19.352452 -7.186012 -18.305500 10.026962 0.000000 0.000000 0.000000 -5.244498 0.053212 11.224788 7.413112 -1.073036 -26.113354 -0.936200 -1.249633 25.678260 -3.977093 3.523719 -24.843997 0.000000 0.000000 0.000000 -17.752453 -14.358407 7.223099 -30.811809 -45.831190 5.563745 4.929890 -53.084450 0.512354 0.000000 0.000000 0.000000 7.361941 15.967840 5.987518 21.293372 26.739602 0.407521 -25.277787 45.095999 -9.062495 0.000000 0.000000 0.000000 
-0.094117 0.919919 1.189688 -2.470917 -1.314215 -4.339787 9.713943 -0.047551 -9.784231 -9.702669 2.814818 30.047438 7.353289 15.581269 4.058400 0.000000 0.000000 0.000000 -1.559889 1.250093 -13.907424 8.329012 -1.546135 21.366305 -7.301159 -18.470347 10.224148 0.000000 0.000000 0.000000 -5.816722 0.081945 10.505577 6.974874 -1.084612 -24.859090 -0.794291 -2.284714 25.058129 -5.010670 4.012590 -26.151765 0.000000 0.000000 0.000000 -18.473498 -13.615029 7.050961 -34.173575 -44.224917 6.176222 -2.460793 -54.110832 4.460828 0.000000 0.000000 0.000000 6.620610 16.406512 6.014553 20.928443 26.617355 0.411471 -19.566095 45.007898 -6.825930 0.000000 0.000000 0.000000 
